<?xml version="1.0" encoding="utf-8"?>
<!-- Generator: Adobe Illustrator 25.4.1, SVG Export Plug-In . SVG Version: 6.00 Build 0)  -->
<svg version="1.1" xmlns="http://www.w3.org/2000/svg" xmlns:xlink="http://www.w3.org/1999/xlink" x="0px" y="0px"
	 viewBox="0 0 841.89 595.27" style="enable-background:new 0 0 841.89 595.27;" xml:space="preserve">
<style type="text/css">
	.st0{fill:#539FD6;}
	.st1{fill:url(#SVGID_1_);}
	.st2{fill:#FFFFFF;}
	.st3{fill:#939598;stroke:#FFFFFF;stroke-miterlimit:10;}
</style>
<g id="bg">
</g>
<g id="texto">
	<g>
		<path class="st0" d="M173.66,265.03c0-2.93,1.12-5.45,3.35-7.56c2.23-2.11,4.9-3.17,7.99-3.17c3.14,0,5.81,1.04,7.99,3.1
			c2.18,2.07,3.28,4.61,3.28,7.63c0,2.93-1.1,5.44-3.31,7.53c-2.21,2.09-4.86,3.14-7.95,3.14c-3.04,0-5.7-1.07-7.95-3.21
			C174.78,270.35,173.66,267.87,173.66,265.03z M195.68,348.42c0,3.72-0.9,6.52-2.69,8.4c-1.79,1.88-4.46,2.82-7.99,2.82
			c-3.58,0-6.27-0.94-8.06-2.82c-1.79-1.88-2.69-4.68-2.69-8.4v-55.85c0-3.81,0.9-6.67,2.69-8.58c1.79-1.91,4.48-2.86,8.06-2.86
			c3.54,0,6.2,0.95,7.99,2.86c1.79,1.91,2.69,4.76,2.69,8.58V348.42z"/>
		<path class="st0" d="M235.67,350.37c0,2.93-0.87,5.21-2.61,6.83c-1.75,1.63-4.16,2.44-7.25,2.44c-3.53,0-6.17-0.93-7.92-2.79
			c-1.75-1.86-2.62-4.67-2.62-8.44v-82.83c0-3.77,0.87-6.59,2.62-8.47c1.74-1.88,4.33-2.82,7.77-2.82c3.49,0,6.1,0.94,7.84,2.82
			c1.74,1.88,2.62,4.71,2.62,8.47v26.42c2.65-4,5.97-7,9.94-8.99c3.98-2,8.54-3,13.7-3c9.67,0,17.58,3.78,23.72,11.33
			c6.14,7.55,9.21,17.37,9.21,29.46c0,11.99-3.07,21.68-9.21,29.08c-6.14,7.39-14.14,11.08-24.01,11.08
			c-5.15,0-9.64-1.02-13.44-3.07c-3.81-2.04-7.25-5.3-10.35-9.76V350.37z M254.01,297.59c-5.75,0-10.16,2-13.26,5.99
			c-3.09,4-4.64,9.74-4.64,17.22c0,7.39,1.52,13.03,4.57,16.91c3.04,3.88,7.44,5.82,13.18,5.82c5.65,0,9.98-2.03,13-6.1
			c3.02-4.07,4.53-9.89,4.53-17.46c0-6.97-1.54-12.45-4.64-16.42C263.66,299.58,259.41,297.59,254.01,297.59z"/>
		<path class="st0" d="M308,265.59c0-3.77,0.9-6.59,2.69-8.47c1.79-1.88,4.48-2.82,8.07-2.82c3.53,0,6.2,0.94,7.99,2.82
			c1.79,1.88,2.69,4.71,2.69,8.47v82.83c0,3.72-0.9,6.52-2.69,8.4c-1.79,1.88-4.46,2.82-7.99,2.82c-3.59,0-6.27-0.94-8.07-2.82
			c-1.79-1.88-2.69-4.68-2.69-8.4V265.59z"/>
		<path class="st0" d="M348.58,265.03c0-2.93,1.12-5.45,3.35-7.56c2.23-2.11,4.9-3.17,7.99-3.17c3.14,0,5.81,1.04,7.99,3.1
			c2.18,2.07,3.28,4.61,3.28,7.63c0,2.93-1.11,5.44-3.32,7.53c-2.21,2.09-4.86,3.14-7.96,3.14c-3.04,0-5.7-1.07-7.95-3.21
			C349.71,270.35,348.58,267.87,348.58,265.03z M370.6,348.42c0,3.72-0.9,6.52-2.69,8.4c-1.79,1.88-4.46,2.82-7.99,2.82
			c-3.58,0-6.27-0.94-8.06-2.82c-1.79-1.88-2.69-4.68-2.69-8.4v-55.85c0-3.81,0.89-6.67,2.69-8.58c1.79-1.91,4.48-2.86,8.06-2.86
			c3.54,0,6.2,0.95,7.99,2.86c1.79,1.91,2.69,4.76,2.69,8.58V348.42z"/>
		<path class="st0" d="M426.28,279.88c12.57,0,22.48,3.6,29.72,10.81c7.24,7.21,10.86,17.11,10.86,29.7
			c0,12.64-3.62,22.57-10.86,29.77c-7.24,7.2-17.15,10.81-29.72,10.81c-12.62,0-22.54-3.6-29.75-10.81
			c-7.22-7.2-10.83-17.13-10.83-29.77c0-12.59,3.61-22.49,10.83-29.7C403.74,283.48,413.66,279.88,426.28,279.88z M426.28,296.96
			c-6.04,0-10.69,2.03-13.96,6.1c-3.27,4.07-4.9,9.84-4.9,17.32c0,7.53,1.63,13.34,4.9,17.43c3.26,4.09,7.92,6.14,13.96,6.14
			c5.94,0,10.54-2.04,13.81-6.14c3.26-4.09,4.9-9.9,4.9-17.43c0-7.48-1.63-13.26-4.9-17.32C436.82,299,432.22,296.96,426.28,296.96z
			"/>
		<path class="st0" d="M534.25,265.59c0-3.77,0.86-6.59,2.58-8.47c1.72-1.88,4.32-2.82,7.81-2.82c3.49,0,6.09,0.94,7.81,2.82
			c1.72,1.88,2.58,4.71,2.58,8.47v82.83c0,3.77-0.88,6.58-2.65,8.44c-1.77,1.86-4.45,2.79-8.03,2.79c-3.2,0-5.6-0.78-7.22-2.33
			c-1.62-1.56-2.43-3.87-2.43-6.94v-2.23c-3.19,4.46-6.71,7.72-10.54,9.76c-3.83,2.04-8.32,3.07-13.48,3.07
			c-9.87,0-17.86-3.7-23.98-11.08c-6.11-7.39-9.17-17.08-9.17-29.08c0-12.08,3.06-21.9,9.17-29.46c6.11-7.55,14-11.33,23.68-11.33
			c5.11,0,9.67,1.01,13.7,3.03c4.03,2.02,7.42,5.01,10.16,8.96V265.59z M516.28,297.59c-5.35,0-9.58,1.99-12.67,5.96
			c-3.1,3.98-4.64,9.45-4.64,16.42c0,7.62,1.49,13.46,4.46,17.5c2.97,4.05,7.26,6.07,12.85,6.07c5.89,0,10.36-1.99,13.41-5.96
			c3.04-3.97,4.56-9.84,4.56-17.6c0-7.16-1.57-12.68-4.71-16.56C526.4,299.53,521.98,297.59,516.28,297.59z"/>
		<path class="st0" d="M640.31,301.29v43.09c0,1.53,0.12,3.3,0.37,5.3c0.24,2,0.37,3.23,0.37,3.69c0,2.42-0.81,4.32-2.43,5.68
			c-1.62,1.37-3.88,2.06-6.77,2.06c-3.98,0-6.91-0.98-8.8-2.93c-1.89-1.95-2.86-5.02-2.91-9.2c-2.7,3.95-6.24,6.96-10.61,9.03
			c-4.37,2.07-9.45,3.1-15.25,3.1c-7.66,0-13.61-2.07-17.86-6.21c-4.25-4.14-6.37-9.92-6.37-17.36c0-6.97,1.79-12.31,5.38-16
			c3.58-3.7,9.67-6.41,18.27-8.12c3.29-0.65,7.48-1.27,12.56-1.85c5.08-0.58,8.38-1.1,9.91-1.57c1.13-0.37,1.96-1.05,2.5-2.02
			c0.54-0.98,0.81-2.21,0.81-3.7c0-3.06-1.01-5.26-3.02-6.59c-2.01-1.32-5.38-1.99-10.09-1.99c-2.46,0-4.7,0.33-6.74,0.98
			c-2.04,0.65-3.84,1.6-5.41,2.86c-0.54,0.47-1.35,1.26-2.43,2.37c-3.39,3.49-6.55,5.23-9.5,5.23c-2.46,0-4.5-0.8-6.15-2.41
			c-1.65-1.6-2.47-3.56-2.47-5.89c0-5.06,3.08-9.49,9.24-13.28c6.16-3.79,13.74-5.68,22.72-5.68c11.19,0,19.77,1.84,25.74,5.51
			C637.32,289.06,640.31,294.36,640.31,301.29z M619.76,321.09c-3.53,1.58-7.57,2.83-12.12,3.73c-4.54,0.91-6.88,1.38-7.03,1.43
			c-3.74,1.02-6.35,2.3-7.84,3.83c-1.5,1.53-2.25,3.65-2.25,6.34c0,2.88,0.98,5.12,2.95,6.73c1.96,1.6,4.71,2.4,8.25,2.4
			c5.45,0,9.82-1.57,13.11-4.71c3.29-3.14,4.93-7.33,4.93-12.59V321.09z"/>
		<path class="st0" d="M662.63,296.82h-3.46c-2.85,0-5-0.59-6.44-1.78c-1.45-1.19-2.17-2.96-2.17-5.33c0-2.37,0.72-4.15,2.17-5.33
			c1.45-1.18,3.6-1.78,6.44-1.78h3.46v-10.32c0-3.77,0.87-6.59,2.62-8.47c1.74-1.88,4.38-2.82,7.92-2.82c3.58,0,6.27,0.94,8.06,2.82
			c1.79,1.88,2.74,4.73,2.84,8.54v10.25h5.45c2.9,0,5.05,0.58,6.45,1.74c1.4,1.16,2.1,2.95,2.1,5.37c0,2.37-0.71,4.15-2.14,5.33
			c-1.43,1.18-3.56,1.78-6.41,1.78h-5.45v41.97c0,1.86,0.33,3.12,0.99,3.77c0.66,0.65,1.88,0.98,3.65,0.98
			c0.3,0,0.84-0.02,1.62-0.07c0.78-0.04,1.47-0.07,2.06-0.07c2.36,0,4.2,0.62,5.52,1.85c1.33,1.23,1.99,2.94,1.99,5.12
			c0,3.26-1.18,5.61-3.54,7.08c-2.35,1.46-6.11,2.2-11.27,2.2c-8.49,0-14.36-1.5-17.6-4.5c-3.24-3-4.86-8.77-4.86-17.33V296.82z"/>
		<path class="st0" d="M776.49,301.29v43.09c0,1.53,0.12,3.3,0.37,5.3c0.24,2,0.37,3.23,0.37,3.69c0,2.42-0.81,4.32-2.43,5.68
			c-1.62,1.37-3.88,2.06-6.77,2.06c-3.98,0-6.91-0.98-8.8-2.93c-1.89-1.95-2.86-5.02-2.91-9.2c-2.7,3.95-6.24,6.96-10.61,9.03
			c-4.37,2.07-9.45,3.1-15.25,3.1c-7.66,0-13.61-2.07-17.86-6.21c-4.25-4.14-6.37-9.92-6.37-17.36c0-6.97,1.79-12.31,5.38-16
			c3.58-3.7,9.67-6.41,18.26-8.12c3.29-0.65,7.48-1.27,12.56-1.85c5.08-0.58,8.38-1.1,9.91-1.57c1.13-0.37,1.96-1.05,2.5-2.02
			c0.54-0.98,0.81-2.21,0.81-3.7c0-3.06-1.01-5.26-3.02-6.59c-2.01-1.32-5.38-1.99-10.09-1.99c-2.46,0-4.7,0.33-6.74,0.98
			c-2.04,0.65-3.84,1.6-5.42,2.86c-0.54,0.47-1.35,1.26-2.43,2.37c-3.39,3.49-6.55,5.23-9.5,5.23c-2.46,0-4.51-0.8-6.15-2.41
			c-1.65-1.6-2.47-3.56-2.47-5.89c0-5.06,3.08-9.49,9.24-13.28c6.16-3.79,13.74-5.68,22.72-5.68c11.2,0,19.78,1.84,25.74,5.51
			C773.51,289.06,776.49,294.36,776.49,301.29z M755.94,321.09c-3.54,1.58-7.57,2.83-12.12,3.73c-4.54,0.91-6.89,1.38-7.04,1.43
			c-3.73,1.02-6.35,2.3-7.84,3.83c-1.5,1.53-2.25,3.65-2.25,6.34c0,2.88,0.98,5.12,2.95,6.73c1.96,1.6,4.71,2.4,8.25,2.4
			c5.45,0,9.82-1.57,13.11-4.71c3.29-3.14,4.93-7.33,4.93-12.59V321.09z"/>
	</g>
	<g>
		<g>
			<linearGradient id="SVGID_1_" gradientUnits="userSpaceOnUse" x1="130.522" y1="259.903" x2="58.9164" y2="360.4919">
				<stop  offset="0" style="stop-color:#68B9E8"/>
				<stop  offset="1" style="stop-color:#3F7EC1"/>
			</linearGradient>
			<path class="st1" d="M137.6,292.91c9.34-7.05,14.01-15.9,14.01-26.54c0-21.47-13.64-32.2-40.92-32.2H69.71
				c0,0-2.92-0.02-4.05,1.28c-1.01,1.16-1.01,3.39-1.01,3.39v117.97c0,0-0.07,2.32,0.65,3.03c1.03,1,3.41,1,3.41,1h46.7
				c1.61,0,3.13-0.04,4.59-0.09h0.11v0c5.37-0.22,9.81-0.84,13.29-1.85c4.45-1.3,8.63-3.59,12.53-6.87
				c7.98-6.87,11.97-16.08,11.97-27.65C157.93,309.28,151.15,298.79,137.6,292.91z M106.25,334.62c-4.85,0-8.78-3.93-8.78-8.78
				c0-4.85,3.93-8.78,8.78-8.78c4.85,0,8.78,3.93,8.78,8.78C115.02,330.69,111.09,334.62,106.25,334.62z M106.25,274.11
				c-4.85,0-8.78-3.93-8.78-8.78c0-4.85,3.93-8.78,8.78-8.78c4.85,0,8.78,3.93,8.78,8.78C115.02,270.18,111.09,274.11,106.25,274.11
				z"/>
		</g>
	</g>
</g>
<g id="linhas">
	<g>
		<path class="st2" d="M149.07,319.9c2.46-3,4.83-6.01,7.1-9.02l0.6-0.8l-1.6-1.2l-0.6,0.8c-2.34,3.1-4.77,6.19-7.3,9.27
			c-7.11-3.85-13.98-8.03-20.58-12.4c4.65-4.43,9.08-8.92,13.26-13.42l0.68-0.73l-1.47-1.36l-0.68,0.73
			c-4.25,4.57-8.76,9.13-13.5,13.64c-6.34-4.27-12.43-8.72-18.21-13.23c6.51-4.66,12.69-9.44,18.54-14.34
			c5.53,3.46,11.06,6.68,16.54,9.59l0.88,0.47l0.94-1.77l-0.88-0.47c-5.25-2.79-10.56-5.86-15.86-9.17
			c5.45-4.62,10.6-9.35,15.46-14.17c2.7,1.47,5.41,2.9,8.1,4.26l0.89,0.45l0.9-1.79l-0.89-0.45c-2.51-1.26-5.02-2.59-7.54-3.95
			c2.16-2.18,4.28-4.38,6.32-6.6l0.68-0.74l-1.47-1.35l-0.68,0.74c-2.14,2.34-4.38,4.65-6.66,6.95c-5.31-2.92-10.64-6.04-15.97-9.38
			c4.52-3.53,8.84-7.13,12.92-10.79l0.74-0.67l-1.34-1.49l-0.74,0.67c-4.21,3.78-8.69,7.5-13.38,11.14
			c-5.4-3.43-10.8-7.08-16.2-10.93c2.98-1.55,5.91-3.13,8.77-4.74l0.87-0.49l-0.98-1.74l-0.87,0.49c-3.12,1.77-6.34,3.49-9.61,5.18
			c-2.4-1.73-4.81-3.5-7.2-5.32l-0.8-0.6l-1.21,1.59l0.8,0.6c2.14,1.62,4.28,3.2,6.42,4.76c-5.73,2.91-11.68,5.7-17.81,8.37
			c-5.36-4.6-10.68-9.42-15.92-14.44l-0.72-0.69l-1.38,1.45l0.72,0.69c5.03,4.81,10.13,9.45,15.27,13.89
			c-6.1,2.61-12.4,5.09-18.86,7.44c-0.27-0.28-0.55-0.57-0.82-0.85l-0.69-0.72l-1.45,1.38l0.69,0.72c0.07,0.07,0.15,0.15,0.22,0.23
			l-0.77,0.28l0.68,1.88l0.94-0.34c0.23-0.08,0.45-0.17,0.67-0.25c5.55,5.73,11.9,11.96,18.95,18.37
			c-6.57,3.61-13.38,7.08-20.39,10.4l-0.9,0.43l0.44,0.94l-0.53,0.52l0.7,0.71c6.12,6.16,12.34,12.02,18.61,17.56
			c-5.92,3.56-12.04,7.04-18.37,10.42l-0.88,0.47l0.94,1.76l0.88-0.47c6.56-3.5,12.9-7.11,19.01-10.8
			c5.26,4.59,10.55,8.96,15.85,13.05l0.79,0.61l1.22-1.58l-0.79-0.61c-5.11-3.95-10.22-8.15-15.29-12.57
			c6.89-4.21,13.5-8.55,19.8-13c5.85,4.58,12.01,9.09,18.43,13.43c-4.13,3.88-8.41,7.72-12.85,11.49l-0.76,0.65l1.3,1.52l0.76-0.65
			c4.58-3.9,9-7.86,13.26-11.87c6.66,4.43,13.59,8.66,20.77,12.56c-5.09,6.12-10.56,12.19-16.38,18.2
			c-5.02-2.96-10.03-6.15-15.03-9.57l-0.83-0.56l-1.13,1.65l0.83,0.57c4.89,3.35,9.81,6.48,14.72,9.39
			c-6.06,6.18-12.49,12.29-19.28,18.3l-0.75,0.66l1.33,1.5l0.75-0.66c6.95-6.16,13.52-12.42,19.72-18.75
			c5.49,3.2,10.98,6.12,16.42,8.73l0.9,0.43l0.87-1.8l-0.9-0.43c-5.25-2.52-10.55-5.34-15.85-8.41
			c5.83-6.03,11.31-12.13,16.41-18.28c2.96,1.58,5.96,3.11,9,4.56l0.9,0.43l0.86-1.8l-0.9-0.43
			C154.74,322.85,151.89,321.39,149.07,319.9z M67.06,256.39c6.52-2.4,12.87-4.92,19.03-7.57c4.47,3.82,8.97,7.49,13.47,10.98
			l0.79,0.61l1.22-1.58l-0.79-0.61c-4.23-3.27-8.45-6.72-12.66-10.29c6.18-2.71,12.18-5.55,17.95-8.51
			c5.5,3.94,11.01,7.67,16.51,11.19c-3.44,2.63-7,5.21-10.66,7.74l-0.82,0.57l1.14,1.65l0.82-0.57c3.89-2.68,7.66-5.44,11.31-8.23
			c5.41,3.41,10.82,6.58,16.21,9.55c-4.84,4.79-9.99,9.47-15.42,14.06c-3.5-2.22-7-4.54-10.48-6.96l-0.82-0.57l-1.14,1.64l0.82,0.57
			c3.33,2.31,6.67,4.53,10.01,6.66c-5.81,4.84-11.94,9.56-18.41,14.17c-6.3-4.97-12.23-10.01-17.76-14.96
			c3.83-2.14,7.58-4.32,11.21-6.54l0.85-0.52l-1.04-1.71l-0.85,0.52c-3.8,2.32-7.72,4.6-11.74,6.84
			C78.85,268.2,72.56,262.06,67.06,256.39z M83.69,304.99c-6.28-5.53-12.52-11.39-18.65-17.55c7.05-3.34,13.9-6.85,20.5-10.49
			c5.56,5,11.54,10.09,17.89,15.13C97.14,296.49,90.56,300.8,83.69,304.99z"/>
		<path class="st2" d="M82.24,342.72c5.71-4,11.29-8.12,16.7-12.33l0.79-0.61l-1.23-1.58l-0.79,0.61
			c-5.53,4.3-11.23,8.51-17.08,12.59c-5.35-4.39-10.68-9.02-15.95-13.89l-0.73-0.68l-1.36,1.47l0.73,0.68
			c5.16,4.76,10.36,9.3,15.6,13.61c-5.06,3.5-10.22,6.91-15.45,10.21l-0.85,0.53l1.07,1.69l0.85-0.53c5.42-3.41,10.76-6.95,16-10.58
			c7.18,5.84,14.41,11.25,21.62,16.15l0.83,0.56l1.12-1.65l-0.83-0.56C96.26,353.64,89.23,348.39,82.24,342.72z"/>
		<path class="st2" d="M776.53,348.52c-2.07,0.06-4.11,0.13-6.17,0.19l6.87-3.32l-0.87-1.8l-10.9,5.27
			c-3.23,0.1-6.45,0.19-9.66,0.28l-1,0.03l0.06,2l1-0.03c1.72-0.05,3.46-0.1,5.2-0.15l-5.48,2.65l0.87,1.8l9.5-4.59
			c3.53-0.11,7.08-0.21,10.65-0.33l1-0.03l-0.06-2L776.53,348.52z"/>
		<path class="st2" d="M753.39,349.21c-9.9,0.27-19.8,0.52-29.59,0.75l42.43-20.57c3.2-0.1,6.41-0.19,9.63-0.29l1-0.03l-0.06-2
			l-1,0.03c-1.73,0.05-3.44,0.1-5.16,0.16l6.6-3.2l-0.87-1.8l-10.62,5.15c-3.54,0.1-7.07,0.21-10.59,0.31l-1,0.03l0.06,2l1-0.03
			c2.04-0.06,4.09-0.12,6.14-0.18l-42.36,20.54c-2.98,0.07-5.95,0.13-8.89,0.19l-1,0.02l0.04,2l1-0.02c1.5-0.03,3.03-0.07,4.54-0.1
			l-3.07,1.49l0.87,1.8l6.99-3.39c11.2-0.25,22.59-0.53,33.97-0.84l1-0.03l-0.06-2L753.39,349.21z"/>
		<path class="st2" d="M640.34,351.26c-3.18,0.03-6.34,0.05-9.49,0.07l10.27-4.99l-0.88-1.8l-14.03,6.82
			c-2.04,0.01-4.09,0.02-6.12,0.03l-1,0l0.01,2l1,0c0.65,0,1.3-0.01,1.95-0.01l-2.25,1.09l0.88,1.8l6-2.92
			c4.53-0.03,9.08-0.06,13.67-0.09l1-0.01l-0.02-2L640.34,351.26z"/>
		<path class="st2" d="M614.95,351.41c-9.31,0.03-18.71,0.04-28.06,0.02l40.44-19.54c4.08-0.02,8.19-0.05,12.32-0.08l1-0.01l-0.02-2
			l-1,0.01c-2.72,0.02-5.42,0.04-8.12,0.06l8.79-4.25l-0.87-1.8l-12.58,6.08c-2.74,0.02-5.48,0.03-8.19,0.04l-1,0l0.01,2l1,0
			c1.33-0.01,2.67-0.01,4-0.02l-40.36,19.51c-2.46-0.01-4.93-0.01-7.38-0.02l-1,0l-0.01,2l1,0c1.09,0,2.19,0.01,3.28,0.01l-2,0.96
			l0.87,1.8l5.69-2.75c4.64,0.01,9.29,0.02,13.95,0.02c6.09,0,12.18-0.01,18.24-0.03l1,0l-0.01-2L614.95,351.41z"/>
		<path class="st2" d="M491.06,350.32l23.19-7.93l-0.65-1.89l-26.97,9.23l0.65,1.89l0.83-0.28l-0.02,0.93l1,0.02
			c13.25,0.29,26.79,0.54,40.24,0.72l1,0.01l0.03-2l-1-0.01C516.56,350.82,503.69,350.59,491.06,350.32z"/>
		<path class="st2" d="M228.14,350.97l7.22-2.64l16.04-6.02l-0.7-1.87l-16.03,6.02l-11.35,4.15c-2.82-0.21-5.56-0.43-8.18-0.63
			l-1-0.08l-0.16,1.99l1,0.08c1.24,0.1,2.52,0.2,3.8,0.3l-3.66,1.34l0.69,1.88l7.79-2.85c3.44,0.26,7.03,0.53,10.77,0.8l1,0.07
			l0.14-2l-1-0.07C232.33,351.28,230.22,351.12,228.14,350.97z"/>
		<path class="st2" d="M727.53,330.41l1-0.02l-0.05-2l-1,0.02c-2.25,0.05-4.49,0.1-6.73,0.15l45.91-22.2
			c3.05-0.09,6.11-0.18,9.18-0.28l1-0.03l-0.06-2l-1,0.03c-1.57,0.05-3.13,0.1-4.7,0.14l8.14-3.94l-0.87-1.8l-12.17,5.89
			c-3.93,0.12-7.85,0.23-11.74,0.34l-1,0.03l0.06,2l1-0.03c2.42-0.07,4.85-0.14,7.28-0.21l-45.84,22.17
			c-3.31,0.07-6.6,0.14-9.88,0.21l-1,0.02l0.04,2l1-0.02c1.83-0.04,3.68-0.08,5.51-0.11l-7.4,3.58l0.87,1.8l11.33-5.48
			C720.11,330.58,723.81,330.5,727.53,330.41z"/>
		<path class="st2" d="M683.41,331.28l1-0.02l-0.03-2l-1,0.02c-2.03,0.03-4.03,0.06-6.05,0.09l7.35-2.69l-0.69-1.88l-12.72,4.65
			c-3.12,0.04-6.23,0.08-9.32,0.12l-1,0.01l0.02,2l1-0.01c1.2-0.01,2.42-0.03,3.62-0.05l-4.92,1.8l0.69,1.88l10.27-3.76
			C675.54,331.4,679.46,331.34,683.41,331.28z"/>
		<path class="st2" d="M590.5,331.98l1,0l0-2l-1,0c-2.12,0-4.21-0.01-6.32-0.01l44.09-21.07c3.77-0.02,7.56-0.05,11.37-0.08l1-0.01
			l-0.02-2l-1,0.01c-2.38,0.02-4.74,0.04-7.11,0.05l7.54-3.61l0.9-0.43l-0.86-1.8l-12.29,5.87c-3.64,0.02-7.26,0.04-10.86,0.05l-1,0
			l0.01,2l1,0c2.19-0.01,4.41-0.02,6.62-0.03l-44.02,21.03c-3.3-0.01-6.59-0.02-9.85-0.04l-1,0l-0.01,2l1,0
			c1.89,0.01,3.81,0.02,5.71,0.02l-6.48,3.09l-0.9,0.43l0.86,1.8l11.11-5.31C583.5,331.96,586.99,331.97,590.5,331.98z"/>
		<path class="st2" d="M499.86,331.04l1,0.02l0.04-2l-1-0.02c-1.73-0.03-3.42-0.07-5.13-0.11l4.98-1.72l-0.65-1.89l-10.11,3.49
			c-3.78-0.08-7.53-0.17-11.25-0.26l-1-0.02l-0.05,2l1,0.03c1.94,0.05,3.91,0.09,5.86,0.14l-6.23,2.15l0.65,1.89l11.33-3.91
			C492.79,330.9,496.31,330.97,499.86,331.04z"/>
		<path class="st2" d="M407.55,328.23l1,0.04l0.08-2l-1-0.04c-2.05-0.09-4.09-0.17-6.12-0.26l6.66-2.44l-0.69-1.88l-11.17,4.09
			c-3.64-0.16-7.23-0.33-10.78-0.5l-1-0.05l-0.1,2l1,0.05c1.99,0.09,4,0.19,6.01,0.28l-6.5,2.38l0.69,1.88l11-4.02
			C400.23,327.92,403.87,328.08,407.55,328.23z"/>
		<path class="st2" d="M441.94,304.55l-1-0.03l-0.07,2l1,0.03c1.89,0.06,3.79,0.12,5.7,0.18l-5.61,2.07l0.69,1.88l10.25-3.78
			c3.91,0.12,7.86,0.23,11.86,0.34l1,0.03l0.06-2l-1-0.03c-2.31-0.06-4.6-0.13-6.89-0.2l6.84-2.52l-0.69-1.88l-11.5,4.24
			C449,304.78,445.45,304.66,441.94,304.55z"/>
		<path class="st2" d="M697.21,286.99l1-0.03l-0.06-2l-1,0.03c-6.23,0.2-12.46,0.39-18.68,0.56l11.27-4.12l-0.69-1.88l-16.89,6.18
			c-7.49,0.2-14.94,0.39-22.3,0.55l-1,0.02l0.04,2l1-0.02c5.41-0.12,10.88-0.26,16.37-0.4l-14.83,5.42l0.69,1.88l20.41-7.47
			C680.73,287.5,688.97,287.26,697.21,286.99z"/>
		<path class="st2" d="M363.28,263.3l7.94-2.9l-0.69-1.88l-12.23,4.47c-3.47-0.22-6.92-0.44-10.32-0.67l-1-0.07l-0.13,2l1,0.07
			c1.91,0.13,3.84,0.26,5.79,0.38l-6.1,2.23l0.69,1.88l10.37-3.8c3.93,0.25,7.9,0.49,11.87,0.72l1,0.06l0.12-2l-1-0.06
			C368.14,263.6,365.71,263.45,363.28,263.3z"/>
		<path class="st2" d="M195.61,342.14l-13.64,4.99c-2.88-0.27-5.65-0.54-8.28-0.8l-1-0.1l-0.2,1.99l0.99,0.1
			c1.34,0.13,2.72,0.27,4.13,0.41l-4.82,1.76l0.69,1.88l8.75-3.2c3.98,0.38,8.17,0.75,12.54,1.14l1,0.09l0.17-1.99l-1-0.09
			c-2.86-0.25-5.64-0.5-8.34-0.75l9.69-3.54L195.61,342.14z"/>
		<path class="st2" d="M223.38,336.77c5.86,0.62,11.83,1.23,17.86,1.82l1,0.1l0.19-1.99l-1-0.1c-4.64-0.45-9.24-0.91-13.79-1.39
			l10.75-3.93l-0.69-1.88l-14.58,5.34c-2.83-0.3-5.64-0.6-8.4-0.91l-0.99-0.11l-0.22,1.99l0.99,0.11c1.44,0.16,2.91,0.32,4.37,0.48
			l-5.56,2.03l0.69,1.88L223.38,336.77z"/>
		<path class="st2" d="M292.61,313.79l-12.96,4.74c-2.97-0.24-5.92-0.48-8.84-0.73l-1-0.08l-0.17,1.99l1,0.08
			c1.5,0.13,3.01,0.25,4.53,0.38l-5.99,2.19l0.69,1.88l10.06-3.68c3.99,0.32,8,0.64,12.01,0.95l1,0.08l0.15-1.99l-1-0.08
			c-2.56-0.2-5.11-0.4-7.67-0.6l8.87-3.25L292.61,313.79z"/>
		<path class="st2" d="M290.02,334.94l-12.52,4.87c-5.15-0.42-10.23-0.85-15.14-1.29l-1-0.09l-0.18,1.99l1,0.09
			c3.61,0.32,7.32,0.63,11.07,0.95l-27.62,10.75c-1.69-0.12-3.38-0.23-5.04-0.35l-1-0.07l-0.14,2l1,0.07
			c0.27,0.02,0.54,0.04,0.81,0.06l-0.02,0.01l0.73,1.86l3.98-1.55c9.43,0.65,19.14,1.28,28.96,1.88l1,0.06l0.12-2l-1-0.06
			c-8.34-0.51-16.61-1.04-24.7-1.58l27.48-10.7c3.08,0.25,6.19,0.5,9.32,0.75l1,0.08l0.16-1.99l-1-0.08
			c-1.75-0.14-3.48-0.28-5.21-0.42l8.68-3.38L290.02,334.94z"/>
		<path class="st2" d="M329.36,337.95l-13.04,4.77c-2.99-0.2-5.97-0.41-8.91-0.62l-1-0.07l-0.14,2l1,0.07
			c1.47,0.1,2.96,0.21,4.44,0.31l-5.66,2.07l0.69,1.88l9.87-3.61c4.02,0.27,8.06,0.54,12.1,0.8l1,0.06l0.13-2l-1-0.06
			c-2.53-0.16-5.06-0.33-7.6-0.5l8.81-3.22L329.36,337.95z"/>
		<path class="st2" d="M329.32,317.62l-10.43,3.82c-3.89-0.26-7.74-0.53-11.49-0.79l-1-0.07l-0.14,2l1,0.07
			c2.3,0.16,4.65,0.33,7.01,0.49l-8.22,3.01l0.69,1.88l12.44-4.55c3.14,0.21,6.32,0.42,9.52,0.63l1,0.06l0.13-2l-1-0.06
			c-1.68-0.11-3.35-0.22-5.01-0.33l6.19-2.27L329.32,317.62z"/>
		<path class="st2" d="M317.82,300.42c3.59,0.24,7.23,0.48,10.88,0.71l1,0.06l0.13-2l-1-0.06c-2.13-0.14-4.26-0.28-6.37-0.41
			l7.55-2.76l-0.69-1.88l-11.79,4.31c-3.42-0.23-6.81-0.47-10.13-0.7l-1-0.07l-0.14,2l1,0.07c1.87,0.13,3.76,0.26,5.66,0.4
			l-6.93,2.54l0.69,1.88L317.82,300.42z"/>
		<path class="st2" d="M317.95,279.04c-3.54-0.28-7.06-0.58-10.53-0.87l-1-0.08l-0.17,1.99l1,0.09c2.06,0.18,4.13,0.35,6.22,0.52
			l-7.41,2.71l0.69,1.88l11.49-4.2c3.47,0.28,6.97,0.55,10.46,0.81l1,0.07l0.15-1.99l-1-0.07c-2.03-0.15-4.07-0.31-6.1-0.47
			l7.31-2.67l-0.69-1.88L317.95,279.04z"/>
		<path class="st2" d="M306.68,266.4l11.61-4.25c3.44,0.27,6.91,0.54,10.4,0.81l1,0.08l0.15-1.99l-1-0.07
			c-2.02-0.15-4.03-0.31-6.04-0.46l6.04-2.21l-0.69-1.88l-10.15,3.71c-3.46-0.28-6.88-0.56-10.24-0.84l-1-0.08l-0.17,1.99l1,0.08
			c1.95,0.17,3.93,0.33,5.92,0.49l-7.53,2.75L306.68,266.4z"/>
		<path class="st2" d="M348.38,287.96l10.95-4.01c2.87,0.18,5.78,0.35,8.72,0.52l1,0.06l0.12-2l-1-0.06
			c-1.39-0.08-2.75-0.16-4.13-0.25l2.36-0.86l-0.69-1.88l-6.68,2.44c-2.64-0.16-5.25-0.33-7.83-0.49l-1-0.07l-0.13,2l1,0.07
			c1.08,0.07,2.19,0.14,3.29,0.21l-6.67,2.44L348.38,287.96z"/>
		<path class="st2" d="M358.28,300.89c-3.28-0.18-6.52-0.36-9.72-0.55l-1-0.06l-0.12,2l1,0.06c1.68,0.1,3.38,0.19,5.09,0.29
			l-6.31,2.31l0.69,1.88l10.68-3.91c3.71,0.2,7.48,0.41,11.3,0.6l1,0.05l0.1-2l-1-0.05c-2.23-0.12-4.44-0.23-6.63-0.35l7.81-2.86
			l-0.69-1.88L358.28,300.89z"/>
		<path class="st2" d="M359.66,323.92c-3.75-0.21-7.45-0.41-11.1-0.63l-1-0.06l-0.12,2l1,0.06c2.13,0.12,4.29,0.25,6.46,0.37
			l-7.74,2.83l0.69,1.88l12.11-4.43c3.27,0.18,6.57,0.36,9.92,0.53l1,0.05l0.1-2l-1-0.05c-1.76-0.09-3.51-0.18-5.25-0.28l6.34-2.32
			l-0.69-1.88L359.66,323.92z"/>
		<path class="st2" d="M370.39,341.18l-11.4,4.17c-3.52-0.19-7-0.39-10.43-0.59l-1-0.06l-0.12,2l1,0.06
			c1.92,0.11,3.85,0.22,5.79,0.33l-7.02,2.57l0.69,1.88l11.39-4.17c3.48,0.19,7.01,0.38,10.59,0.57l1,0.05l0.1-2l-1-0.05
			c-1.99-0.1-3.96-0.21-5.93-0.31l7.01-2.57L370.39,341.18z"/>
		<path class="st2" d="M385.55,308.76l10.84-3.97c4.43,0.2,8.86,0.39,13.24,0.57l1,0.04l0.08-2l-1-0.04
			c-2.79-0.11-5.62-0.24-8.44-0.36l41.56-15.23c3.42,0.11,6.84,0.21,10.27,0.31l1,0.03l0.06-2l-1-0.03
			c-1.77-0.05-3.53-0.1-5.29-0.15l2.75-1.01l-0.69-1.88l-7.43,2.72c-9.6-0.3-19.11-0.64-28.45-1.02l15.84-5.8l-0.69-1.88
			l-20.38,7.46c-2.76-0.12-5.5-0.24-8.22-0.36l-1-0.05l-0.09,2l1,0.05c1.14,0.05,2.28,0.1,3.42,0.15l-10.72,3.92l0.69,1.88
			l15.24-5.58c9.3,0.39,18.77,0.75,28.34,1.06l-41.4,15.18c-2.94-0.13-5.87-0.26-8.8-0.4l-1-0.05l-0.09,2l1,0.05
			c1.34,0.06,2.69,0.12,4.03,0.18l-6.36,2.33L385.55,308.76z"/>
		<path class="st2" d="M466.44,323.9l-10.7,4.05c-4.23-0.13-8.42-0.26-12.56-0.39l-1-0.03l-0.07,2l1,0.03
			c2.55,0.08,5.15,0.16,7.74,0.25l-11.71,4.43l0.71,1.87l16.23-6.14c3.03,0.09,6.07,0.18,9.14,0.26l1,0.03l0.06-2l-1-0.03
			c-1.44-0.04-2.86-0.08-4.29-0.12l6.16-2.33L466.44,323.9z"/>
		<path class="st2" d="M460.31,341.92l-19.19,7.02c-10.51-0.35-20.94-0.74-31.22-1.16l13.94-5.1l-0.69-1.88l-18.47,6.76
			c-3.06-0.13-6.11-0.26-9.14-0.4l-1-0.04l-0.09,2l1,0.04c1.44,0.06,2.89,0.13,4.34,0.19l-2.6,0.95l0.69,1.88l7.12-2.6
			c10.23,0.43,20.63,0.83,31.12,1.2l-19.3,7.06l0.69,1.88l23.94-8.76c3.99,0.13,8,0.26,12,0.38l1,0.03l0.06-2l-1-0.03
			c-2.35-0.07-4.7-0.14-7.05-0.22L461,343.8L460.31,341.92z"/>
		<path class="st2" d="M544.77,329.72c-4.34-0.04-8.65-0.09-12.91-0.15l-1-0.01l-0.03,2l1,0.01c2.56,0.03,5.16,0.06,7.75,0.09
			l-12.72,4.76l0.7,1.87l17.56-6.58c3.06,0.03,6.12,0.06,9.22,0.09l1,0.01l0.02-2l-1-0.01c-1.35-0.01-2.68-0.03-4.03-0.04l5.31-1.99
			l-0.7-1.87L544.77,329.72z"/>
		<path class="st2" d="M546.6,306.75c-4.93-0.05-9.83-0.1-14.66-0.16l-1-0.01l-0.03,2l1,0.01c3.27,0.04,6.56,0.08,9.87,0.12
			l-9.81,3.98l0.75,1.85l14.25-5.78c2.45,0.02,4.89,0.05,7.37,0.07l1,0.01l0.02-2l-1-0.01c-0.86-0.01-1.71-0.02-2.56-0.02l3.86-1.56
			l-0.75-1.85L546.6,306.75z"/>
		<path class="st2" d="M533.01,275.2l11.3-4.28c3.33,0.02,6.67,0.03,10.05,0.04l1,0l0-2l-1,0c-1.62,0-3.21-0.01-4.82-0.02l6.1-2.31
			l-0.71-1.87l-10.99,4.16c-3.47-0.02-6.92-0.04-10.35-0.06l-1-0.01l-0.02,2l1,0.01c1.71,0.01,3.44,0.02,5.16,0.03l-6.45,2.44
			L533.01,275.2z"/>
		<path class="st2" d="M661.36,312.83l12.02-4.4c3.33-0.05,6.66-0.1,10.02-0.15l1-0.02l-0.03-2l-1,0.02
			c-1.44,0.02-2.86,0.04-4.29,0.06l5.59-2.04l-0.69-1.88l-10.97,4.01c-3.71,0.05-7.4,0.1-11.07,0.15l-1,0.01l0.03,2l1-0.01
			c1.78-0.02,3.58-0.05,5.37-0.07l-6.67,2.44L661.36,312.83z"/>
		<path class="st2" d="M699.33,344.59l-16.5,6.16c-5.81,0.09-11.61,0.17-17.37,0.25l-1,0.01l0.03,2l1-0.01
			c3.9-0.05,7.83-0.11,11.76-0.16l-7.3,2.73l0.7,1.87l12.57-4.69c5.25-0.08,10.5-0.17,15.71-0.27l1-0.02l-0.04-2l-1,0.02
			c-3.35,0.06-6.71,0.12-10.07,0.18l11.22-4.19L699.33,344.59z"/>
		<path class="st2" d="M661.44,273.61l11.03-4.04c3.56-0.09,7.14-0.18,10.75-0.28l1-0.03l-0.05-2l-1,0.03
			c-1.61,0.04-3.2,0.08-4.8,0.13l5.21-1.91l-0.69-1.88l-10.79,3.95c-3.38,0.08-6.74,0.17-10.08,0.24l-1,0.02l0.05,2l1-0.02
			c1.39-0.03,2.79-0.07,4.19-0.1l-5.49,2.01L661.44,273.61z"/>
		<path class="st2" d="M554.96,347.96l-8.95,3.23c-3.88-0.04-7.75-0.08-11.57-0.13l-1-0.01l-0.03,2l1,0.01
			c2.06,0.03,4.14,0.05,6.22,0.07l-5.44,1.96l0.68,1.88l10.49-3.79c2.37,0.02,4.74,0.05,7.13,0.07l1,0.01l0.02-2l-1-0.01
			c-0.59,0-1.16-0.01-1.75-0.02l3.89-1.4L554.96,347.96z"/>
		<path class="st2" d="M572.57,297.75l17.21-8.51c10.91-0.1,21.99-0.24,33.13-0.42l-11.47,5.55l0.87,1.8l15.36-7.43
			c2.55-0.04,5.11-0.09,7.67-0.14l1-0.02l-0.04-2l-1,0.02c-1.11,0.02-2.22,0.04-3.33,0.06l2.09-1.01l-0.87-1.8l-5.99,2.9
			c-11.19,0.2-22.32,0.35-33.3,0.46l17.14-8.48l-0.89-1.79l-20.85,10.31c-4.24,0.04-8.45,0.07-12.63,0.09l-1,0.01l0.01,2l1-0.01
			c2.82-0.02,5.66-0.04,8.5-0.06l-13.5,6.68L572.57,297.75z"/>
		<path class="st2" d="M709,295.92l20.84-10.08c11.96-0.46,24.09-0.97,36.23-1.51l-19.68,9.52l0.87,1.8l22.07-10.67l-0.87-1.8
			l-1.33,0.64l-0.07-1.54l-1,0.04c-10.62,0.48-21.22,0.92-31.71,1.34l10.19-4.93l-0.87-1.8l-14.32,6.92
			c-4.38,0.17-8.73,0.33-13.05,0.49l-1,0.04l0.07,2l1-0.04c2.81-0.1,5.65-0.21,8.49-0.31l-16.73,8.09L709,295.92z"/>
		<path class="st2" d="M476.81,312.14l11.76-4.3c3.81,0.08,7.64,0.17,11.51,0.24l1,0.02l0.04-2l-1-0.02
			c-2.14-0.04-4.26-0.09-6.38-0.13l11.52-4.21l-0.69-1.88l-16.33,5.98c-3.39-0.08-6.76-0.15-10.1-0.23l-1-0.02l-0.05,2l1,0.02
			c1.66,0.04,3.34,0.08,5.01,0.12l-6.98,2.55L476.81,312.14z"/>
		<path class="st2" d="M482.21,295.72l18.25-6.68c10.35,0.14,20.89,0.25,31.47,0.3l0.65,0v0l1,0c1.21,0.01,2.44,0.01,3.65,0.01
			l-17.59,6.44l0.69,1.88L543,289.4c3.21,0.01,6.44,0.01,9.69,0.01c0.55,0,1.11,0,1.67,0l1,0v-2l-1,0c-1.99,0-3.94,0-5.91-0.01
			l7.19-2.63l-0.69-1.88l-12.3,4.5c-3.04-0.01-6.06-0.02-9.06-0.03l-0.65,0v0l-1-0.01c-8.8-0.05-17.55-0.13-26.2-0.24l17.22-6.3
			l-0.69-1.88l-22.16,8.11c-4.17-0.06-8.31-0.12-12.41-0.19l-1-0.02l-0.04,2l1,0.02c2.38,0.04,4.79,0.08,7.19,0.11l-13.34,4.88
			L482.21,295.72z"/>
		<path class="st2" d="M236.99,308.86l-12.55,4.55c-3.3-0.35-6.55-0.7-9.73-1.05l-0.99-0.11l-0.22,1.99l0.99,0.11
			c1.86,0.21,3.76,0.41,5.66,0.62l-6.82,2.48l0.68,1.88l10.67-3.87c3.55,0.37,7.15,0.74,10.79,1.11l0.99,0.1l0.2-1.99l-1-0.1
			c-2.24-0.22-4.47-0.45-6.68-0.68l8.67-3.15L236.99,308.86z"/>
		<path class="st2" d="M223.6,292.41c14.76,1.56,30.36,3.03,46.6,4.4l-7.16,2.6l0.68,1.88l11.24-4.08
			c4.13,0.34,8.28,0.68,12.49,1.01l1,0.08l0.16-1.99l-1-0.08c-2.73-0.21-5.43-0.43-8.13-0.65l6.68-2.42l-0.68-1.88l-10.78,3.91
			c-16.3-1.35-31.96-2.8-46.82-4.34l8.8-3.22l-0.69-1.88l-12.65,4.63c-2.91-0.31-5.78-0.62-8.62-0.93l-0.99-0.11l-0.22,1.99
			l0.99,0.11c1.51,0.17,3.06,0.33,4.6,0.5l-5.78,2.11l0.69,1.88L223.6,292.41z"/>
		
			<rect x="237.93" y="280.89" transform="matrix(0.9445 -0.3286 0.3286 0.9445 -78.7571 97.7981)" class="st2" width="24.04" height="2"/>
		<path class="st2" d="M214.01,275.66l12.19-4.46c3,0.42,6.04,0.84,9.12,1.25l0.99,0.13l0.26-1.98l-0.99-0.13
			c-1.81-0.24-3.61-0.48-5.39-0.73l6.54-2.39l-0.69-1.88l-10.07,3.68c-3.83-0.54-7.58-1.09-11.22-1.65l-0.99-0.15l-0.3,1.98
			l0.99,0.15c2.47,0.38,5,0.75,7.56,1.12l-8.69,3.18L214.01,275.66z"/>
		<path class="st2" d="M183.85,330.08c-3.55-0.47-6.93-0.94-10.13-1.4l-0.99-0.14l-0.29,1.98l0.99,0.14
			c2.05,0.3,4.18,0.59,6.38,0.89l-7.52,2.75l0.69,1.88l11.09-4.06c3.46,0.46,7.07,0.92,10.82,1.38l0.99,0.12l0.25-1.99l-0.99-0.12
			c-2.39-0.3-4.72-0.59-7-0.89l8.16-2.99l-0.69-1.88L183.85,330.08z"/>
		<path class="st2" d="M184.38,308.69c-3.74-0.5-7.3-0.99-10.66-1.47l-0.99-0.14l-0.29,1.98l0.99,0.14
			c2.22,0.32,4.53,0.64,6.91,0.97l-8.05,2.95l0.69,1.88l11.62-4.25c3.3,0.44,6.73,0.88,10.28,1.31l0.99,0.12l0.25-1.99l-0.99-0.12
			c-2.2-0.27-4.35-0.55-6.46-0.82l7.79-2.85l-0.69-1.88L184.38,308.69z"/>
		<path class="st2" d="M184.49,287.82c3.27,0.43,6.68,0.86,10.21,1.3l0.99,0.12l0.24-1.98l-0.99-0.12c-2.18-0.27-4.3-0.54-6.38-0.8
			l5.96-2.18l-0.69-1.88l-9.56,3.5c-3.44-0.45-6.72-0.9-9.82-1.35l-0.99-0.14l-0.28,1.98l0.99,0.14c1.95,0.28,3.98,0.56,6.07,0.84
			l-7.93,2.9l0.69,1.88L184.49,287.82z"/>
		<path class="st2" d="M173.3,268.81l11.09-4.06c2.86,1.33,6.19,2.75,9.83,4.11l0.94,0.35l0.7-1.87l-0.94-0.35
			c-2.84-1.06-5.48-2.16-7.86-3.22l9.22-3.37l-0.69-1.88l-11.12,4.07c-5.89-2.77-9.6-5.01-9.66-5.04l-0.85-0.52l-1.04,1.71
			l0.85,0.52c0.05,0.03,3.11,1.87,8.07,4.29l-9.24,3.38L173.3,268.81z"/>
	</g>
</g>
<g id="pontos">
	<circle class="st3" cx="83.35" cy="306.44" r="3.22"/>
	<circle class="st3" cx="125.56" cy="276.59" r="3.22"/>
	<circle class="st3" cx="105.39" cy="292.44" r="3.22"/>
	<circle class="st3" cx="85.52" cy="275.72" r="3.22"/>
	<path class="st3" d="M145.55,260.5c0,1.78-1.44,3.22-3.22,3.22c-1.78,0-3.22-1.44-3.22-3.22s1.44-3.22,3.22-3.22
		C144.1,257.28,145.55,258.72,145.55,260.5z"/>
	<circle class="st3" cx="124.68" cy="251.44" r="3.22"/>
	<circle class="st3" cx="106.07" cy="237.94" r="3.22"/>
	<circle class="st3" cx="86.57" cy="247.83" r="3.22"/>
	<circle class="st3" cx="146.78" cy="319.65" r="3.22"/>
	<circle class="st3" cx="130.02" cy="340.56" r="3.22"/>
	<path class="st3" d="M109.29,359.5c0,1.78-1.44,3.22-3.22,3.22c-1.78,0-3.22-1.44-3.22-3.22c0-1.78,1.44-3.22,3.22-3.22
		C107.85,356.27,109.29,357.72,109.29,359.5z"/>
	<circle class="st3" cx="80.13" cy="342.74" r="3.22"/>
	<circle class="st3" cx="125.56" cy="306.44" r="3.22"/>
	<circle class="st3" cx="318.22" cy="260.5" r="3.22"/>
	<circle class="st3" cx="318.22" cy="280.02" r="3.22"/>
	<circle class="st3" cx="318.22" cy="299.29" r="3.22"/>
	<circle class="st3" cx="318.22" cy="323.09" r="3.22"/>
	<circle class="st3" cx="318.22" cy="344.55" r="3.22"/>
	<circle class="st3" cx="275.65" cy="340.56" r="3.22"/>
	<circle class="st3" cx="249.94" cy="352.87" r="3.22"/>
	<circle class="st3" cx="281.04" cy="319.65" r="3.22"/>
	<circle class="st3" cx="274.96" cy="297.22" r="3.22"/>
	<circle class="st3" cx="184.56" cy="286.77" r="3.22"/>
	<circle class="st3" cx="224.86" cy="269.56" r="3.22"/>
	<circle class="st3" cx="224.86" cy="290.35" r="3.22"/>
	<circle class="st3" cx="224.86" cy="313.09" r="3.22"/>
	<circle class="st3" cx="224.86" cy="335.2" r="3.22"/>
	<circle class="st3" cx="224.86" cy="351.43" r="3.22"/>
	<circle class="st3" cx="184.56" cy="309.76" r="3.22"/>
	<circle class="st3" cx="184.56" cy="331.09" r="3.22"/>
	<path class="st3" d="M187.78,348.31c0,1.78-1.44,3.22-3.22,3.22c-1.78,0-3.22-1.44-3.22-3.22c0-1.78,1.44-3.22,3.22-3.22
		C186.34,345.09,187.78,346.53,187.78,348.31z"/>
	<circle class="st3" cx="184.56" cy="263.72" r="3.22"/>
	<circle class="st3" cx="359.62" cy="283.77" r="3.22"/>
	<circle class="st3" cx="359.62" cy="301.76" r="3.22"/>
	<circle class="st3" cx="359.62" cy="325.09" r="3.22"/>
	<path class="st3" d="M362.84,347.31c0,1.78-1.44,3.22-3.22,3.22c-1.78,0-3.22-1.44-3.22-3.22c0-1.78,1.44-3.22,3.22-3.22
		C361.4,344.09,362.84,345.53,362.84,347.31z"/>
	<circle class="st3" cx="359.62" cy="263.72" r="3.22"/>
	<circle class="st3" cx="404.38" cy="348.77" r="3.22"/>
	<path class="st3" d="M443.65,350.53c0,1.78-1.44,3.22-3.22,3.22c-1.78,0-3.22-1.44-3.22-3.22c0-1.78,1.44-3.22,3.22-3.22
		C442.21,347.31,443.65,348.75,443.65,350.53z"/>
	<circle class="st3" cx="409.68" cy="285.51" r="3.22"/>
	<circle class="st3" cx="443.25" cy="287.33" r="3.22"/>
	<circle class="st3" cx="396.57" cy="303.86" r="3.22"/>
	<circle class="st3" cx="453.13" cy="306.24" r="3.22"/>
	<circle class="st3" cx="455.68" cy="329.22" r="3.22"/>
	<circle class="st3" cx="396.54" cy="326.74" r="3.22"/>
	<circle class="st3" cx="489.11" cy="330.04" r="3.22"/>
	<circle class="st3" cx="488.53" cy="307.08" r="3.22"/>
	<circle class="st3" cx="500.44" cy="288.34" r="3.22"/>
	<circle class="st3" cx="543.82" cy="288.34" r="3.22"/>
	<circle class="st3" cx="543.82" cy="270.75" r="3.22"/>
	<circle class="st3" cx="543.82" cy="307.71" r="3.22"/>
	<circle class="st3" cx="543.82" cy="330.69" r="3.22"/>
	<circle class="st3" cx="543.82" cy="352.47" r="3.22"/>
	<circle class="st3" cx="489.11" cy="351.28" r="3.22"/>
	<circle class="st3" cx="580.11" cy="330.98" r="3.22"/>
	<circle class="st3" cx="583.33" cy="352.47" r="3.22"/>
	<circle class="st3" cx="625.97" cy="352.32" r="3.22"/>
	<circle class="st3" cx="672.68" cy="330.69" r="3.22"/>
	<path class="st3" d="M686.61,352c0,1.78-1.44,3.22-3.22,3.22c-1.78,0-3.22-1.44-3.22-3.22c0-1.78,1.44-3.22,3.22-3.22
		C685.17,348.77,686.61,350.22,686.61,352z"/>
	<circle class="st3" cx="716.33" cy="329.87" r="3.22"/>
	<circle class="st3" cx="766.1" cy="350.14" r="3.22"/>
	<path class="st3" d="M769.63,328.39c0,1.78-1.44,3.22-3.22,3.22c-1.78,0-3.22-1.44-3.22-3.22s1.44-3.22,3.22-3.22
		C768.18,325.17,769.63,326.61,769.63,328.39z"/>
	<path class="st3" d="M769.63,305.08c0,1.78-1.44,3.22-3.22,3.22c-1.78,0-3.22-1.44-3.22-3.22s1.44-3.22,3.22-3.22
		C768.18,301.86,769.63,303.3,769.63,305.08z"/>
	<circle class="st3" cx="766.1" cy="283.32" r="3.22"/>
	<circle class="st3" cx="729.56" cy="285.99" r="3.22"/>
	<path class="st3" d="M722.77,351.73c0,1.78-1.44,3.22-3.22,3.22c-1.78,0-3.22-1.44-3.22-3.22c0-1.78,1.44-3.22,3.22-3.22
		C721.33,348.51,722.77,349.95,722.77,351.73z"/>
	<circle class="st3" cx="672.68" cy="307.07" r="3.22"/>
	<circle class="st3" cx="672.68" cy="287.07" r="3.22"/>
	<circle class="st3" cx="672.68" cy="268.29" r="3.22"/>
	<circle class="st3" cx="588.97" cy="288.34" r="3.22"/>
	<path class="st3" d="M630.47,288.34c0,1.78-1.44,3.22-3.22,3.22c-1.78,0-3.22-1.44-3.22-3.22c0-1.78,1.44-3.22,3.22-3.22
		C629.03,285.12,630.47,286.56,630.47,288.34z"/>
	<circle class="st3" cx="628.31" cy="307.82" r="3.22"/>
	<circle class="st3" cx="628.31" cy="330.87" r="3.22"/>
</g>
</svg>
